<?xml version="1.0" encoding="UTF-8"?>
<svg id="Livello_1" xmlns="http://www.w3.org/2000/svg" version="1.1" viewBox="0 0 48 48">
  <!-- Generator: Adobe Illustrator 29.4.0, SVG Export Plug-In . SVG Version: 2.1.0 Build 152)  -->
  <defs>
    <style>
      .st0 {
        fill: #ddded9;
      }
    </style>
  </defs>
  <path class="st0" d="M11.5,6c-3,0-5.5,2.5-5.5,5.5v25c0,3,2.5,5.5,5.5,5.5h25c3,0,5.5-2.5,5.5-5.5V11.5c0-3-2.5-5.5-5.5-5.5H11.5ZM11.5,9h25c1.4,0,2.5,1.1,2.5,2.5v25c0,1.4-1.1,2.5-2.5,2.5H11.5c-1.4,0-2.5-1.1-2.5-2.5V11.5c0-1.4,1.1-2.5,2.5-2.5ZM15.5,13c-1.4,0-2.5,1.1-2.5,2.5s1.1,2.5,2.5,2.5,2.5-1.1,2.5-2.5-1.1-2.5-2.5-2.5ZM14,20c-.6,0-1,.4-1,1v13c0,.6.4,1,1,1h3c.6,0,1-.4,1-1v-13c0-.6-.4-1-1-1h-3ZM21,20c-.6,0-1,.4-1,1v13c0,.6.4,1,1,1h3c.6,0,1-.4,1-1v-7.5c0-1.4,1.1-2.5,2.5-2.5s2.5,1.1,2.5,2.5v7.5c0,.6.4,1,1,1h3c.6,0,1-.4,1-1v-8c0-3.3-2.7-6-6-6s-2.9.6-4,1.5v-.5c0-.6-.4-1-1-1h-3Z"/>
</svg>